<?xml version="1.0" encoding="UTF-8" standalone="no"?>
<svg
   width="139.22501"
   height="20"
   viewBox="0 0 139.22501 20"
   fill="none"
   version="1.1"
   id="svg20"
   sodipodi:docname="Debit_Credit.svg"
   xmlns:inkscape="http://www.inkscape.org/namespaces/inkscape"
   xmlns:sodipodi="http://sodipodi.sourceforge.net/DTD/sodipodi-0.dtd"
   xmlns="http://www.w3.org/2000/svg"
   xmlns:svg="http://www.w3.org/2000/svg">
  <sodipodi:namedview
     id="namedview20"
     pagecolor="#ffffff"
     bordercolor="#666666"
     borderopacity="1.0"
     inkscape:showpageshadow="2"
     inkscape:pageopacity="0.0"
     inkscape:pagecheckerboard="0"
     inkscape:deskcolor="#d1d1d1">
    <inkscape:page
       x="0"
       y="0"
       width="139.22501"
       height="20"
       id="page2"
       margin="0"
       bleed="0" />
  </sodipodi:namedview>
  <g
     clip-path="url(#clip0_10437_107657)"
     id="g4">
    <rect
       width="30"
       height="20"
       fill="#f0f2f9"
       id="rect1"
       x="0"
       y="0" />
    <g
       clip-path="url(#clip1_10437_107657)"
       id="g3">
      <path
         d="m 19.6607,6.67187 c 0,1.74184 -1.6076,3.79683 -4.0398,3.79683 h -2.3427 l -0.115,0.7255 -0.5465,3.4933 H 9.70508 l 1.75142,-11.25 h 4.7173 c 1.5885,0 2.8381,0.8853 3.2983,2.11577 0.1311,0.34836 0.195,0.72549 0.1886,1.1186 z"
         fill="#002991"
         id="path1" />
      <path
         d="M 21.3386,9.90625 C 21.0158,11.8558 19.3379,13.2813 17.3531,13.2813 H 15.7264 L 15.0488,17.5 h -2.8956 l 0.4634,-2.8125 0.5465,-3.4933 0.1151,-0.7254 h 2.3427 c 2.429,0 4.0398,-2.05509 4.0398,-3.79692 1.1953,0.61683 1.892,1.86328 1.6779,3.23437 z"
         fill="#60cdff"
         id="path2" />
      <path
         d="M 19.6607,6.67187 C 19.1589,6.4098 18.5516,6.25 17.8901,6.25 h -3.9503 l -0.6616,4.2188 h 2.3427 c 2.429,0 4.0398,-2.05509 4.0398,-3.79693 z"
         fill="#008cff"
         id="path3" />
    </g>
  </g>
  <g
     clip-path="url(#clip2_10437_107657)"
     id="g5">
    <rect
       x="34"
       width="30"
       height="20"
       fill="#001c64"
       id="rect4"
       y="0" />
    <path
       fill-rule="evenodd"
       clip-rule="evenodd"
       d="m 49.1078,8.4004 c -0.0109,0.93718 0.8327,1.45927 1.4684,1.7708 0.653,0.3188 0.8722,0.5234 0.8697,0.8085 -0.0049,0.4367 -0.5212,0.6291 -1.0039,0.6366 -0.843,0.0132 -1.3323,-0.2286 -1.7223,-0.411 l -0.3036,1.4257 c 0.3915,0.1804 1.1149,0.3378 1.8648,0.3457 1.7619,0 2.914,-0.8732 2.9196,-2.2261 0.0074,-1.71689 -2.3657,-1.81165 -2.3494,-2.57883 0.0054,-0.23322 0.2266,-0.48129 0.7112,-0.545 0.2401,-0.03121 0.9028,-0.05556 1.6534,0.29121 L 53.5103,6.53839 C 53.1065,6.39137 52.5877,6.25 51.9414,6.25 c -1.6575,0 -2.8242,0.88435 -2.8336,2.1504 z m 7.2358,-2.03145 c -0.322,0 -0.5935,0.18782 -0.7139,0.47718 l -2.5164,6.02877 h 1.7607 l 0.3499,-0.972 h 2.1512 l 0.2027,0.972 h 1.5509 L 57.7749,6.36895 Z m 0.2457,1.7579 0.5081,2.44285 h -1.3909 z m -9.615,-1.7579 -1.3873,6.50595 h 1.6771 l 1.3868,-6.50595 z m -2.4812,0 -1.7455,4.42805 -0.706,-3.7649 C 41.9589,6.61177 41.6316,6.36895 41.2682,6.36895 H 38.4145 L 38.375,6.55758 c 0.5856,0.1279 1.2513,0.33403 1.6545,0.55371 0.2468,0.13452 0.3171,0.25185 0.3983,0.57145 l 1.3371,5.19216 h 1.7726 l 2.717,-6.50595 z"
       fill="#ffffff"
       id="path4" />
  </g>
  <g
     clip-path="url(#clip3_10437_107657)"
     id="g12">
    <rect
       x="68"
       width="30"
       height="20"
       fill="#ffffff"
       id="rect5"
       y="0" />
    <rect
       x="68"
       width="30"
       height="20"
       fill="url(#paint0_linear_10437_107657)"
       id="rect6"
       y="0"
       style="fill:url(#paint0_linear_10437_107657)" />
    <rect
       x="68"
       width="30"
       height="20"
       fill="url(#paint1_radial_10437_107657)"
       id="rect7"
       y="0"
       style="fill:url(#paint1_radial_10437_107657)" />
    <g
       clip-path="url(#clip4_10437_107657)"
       id="g11">
      <path
         d="m 89.8472,15.32 v 0.0282 h 0.0266 c 0.0049,0 0.0099,-0.0012 0.0142,-0.0036 0.0017,-0.0012 0.0031,-0.0029 0.0041,-0.0047 9e-4,-0.0019 0.0014,-0.004 0.0013,-0.0061 0,-0.002 -4e-4,-0.0041 -0.0013,-0.0059 -0.001,-0.0018 -0.0024,-0.0034 -0.0041,-0.0046 -0.0043,-0.0025 -0.0092,-0.0038 -0.0142,-0.0035 h -0.0266 z m 0.0268,-0.0199 c 0.0114,-7e-4 0.0227,0.0026 0.032,0.0092 0.0037,0.003 0.0066,0.0068 0.0086,0.0111 0.0019,0.0043 0.0028,0.009 0.0026,0.0138 1e-4,0.004 -6e-4,0.0081 -0.0021,0.0119 -0.0016,0.0037 -0.0039,0.0071 -0.0069,0.0099 -0.0071,0.0061 -0.0161,0.0098 -0.0255,0.0105 l 0.0356,0.0401 h -0.0274 l -0.0328,-0.0398 h -0.0106 v 0.0398 h -0.023 v -0.1064 h 0.0499 z m -0.0071,0.1432 c 0.0121,10e-5 0.024,-0.0023 0.035,-0.0071 0.0107,-0.0045 0.0203,-0.011 0.0285,-0.019 0.0082,-0.0081 0.0148,-0.0176 0.0193,-0.0281 0.0094,-0.0223 0.0094,-0.0473 0,-0.0696 -0.0046,-0.0105 -0.0111,-0.02 -0.0193,-0.0281 -0.0082,-0.0081 -0.0179,-0.0146 -0.0285,-0.0191 -0.0111,-0.0045 -0.023,-0.0067 -0.035,-0.0066 -0.0122,-1e-4 -0.0243,0.0021 -0.0356,0.0066 -0.0109,0.0044 -0.0208,0.0109 -0.0292,0.0191 -0.0126,0.0127 -0.0211,0.0288 -0.0245,0.0463 -0.0034,0.0175 -0.0015,0.0356 0.0055,0.0521 0.0043,0.0105 0.0108,0.0201 0.019,0.0281 0.0084,0.0081 0.0183,0.0146 0.0292,0.019 0.0112,0.0048 0.0234,0.0072 0.0356,0.0071 z m 0,-0.2032 c 0.0313,0 0.0614,0.0121 0.0838,0.0338 0.0107,0.0103 0.0193,0.0227 0.0252,0.0364 0.0061,0.0141 0.0092,0.0292 0.0092,0.0445 0,0.0153 -0.0031,0.0304 -0.0092,0.0445 -0.006,0.0136 -0.0146,0.0259 -0.0252,0.0364 -0.011,0.0104 -0.0237,0.0187 -0.0376,0.0246 -0.0146,0.0062 -0.0303,0.0093 -0.0462,0.0092 -0.016,10e-5 -0.032,-0.003 -0.0467,-0.0092 -0.0141,-0.0058 -0.027,-0.0141 -0.0379,-0.0246 -0.0107,-0.0108 -0.0191,-0.0236 -0.0249,-0.0376 -0.0061,-0.0141 -0.0092,-0.0292 -0.0092,-0.0445 0,-0.0153 0.0031,-0.0304 0.0092,-0.0445 0.0059,-0.0136 0.0145,-0.026 0.0253,-0.0364 0.0108,-0.0107 0.0236,-0.0191 0.0378,-0.0246 0.0148,-0.0062 0.0307,-0.0093 0.0468,-0.0092 z M 78.9521,14.8294 c 0,-0.2028 0.1347,-0.3694 0.3549,-0.3694 0.2104,0 0.3524,0.1594 0.3524,0.3694 0,0.21 -0.142,0.3694 -0.3524,0.3694 -0.2202,0 -0.3549,-0.1666 -0.3549,-0.3694 z m 0.9472,0 v -0.5771 h -0.2544 v 0.1406 c -0.0807,-0.1039 -0.2031,-0.1691 -0.3695,-0.1691 -0.3279,0 -0.5853,0.2536 -0.5853,0.6059 0,0.3522 0.2572,0.6058 0.5853,0.6058 0.1663,0 0.2888,-0.0652 0.3695,-0.169 v 0.1401 h 0.2541 v -0.5772 z m 8.5961,0 c 0,-0.2028 0.1348,-0.3694 0.355,-0.3694 0.2107,0 0.3524,0.1594 0.3524,0.3694 0,0.21 -0.1417,0.3694 -0.3524,0.3694 -0.2202,0 -0.355,-0.1666 -0.355,-0.3694 z m 0.9475,0 v -1.0403 h -0.2546 v 0.6038 c -0.0807,-0.1039 -0.2031,-0.1691 -0.3695,-0.1691 -0.3279,0 -0.5853,0.2536 -0.5853,0.6059 0,0.3522 0.2572,0.6058 0.5853,0.6058 0.1664,0 0.2888,-0.0652 0.3695,-0.169 v 0.1401 h 0.2546 z m -6.3861,-0.3813 c 0.164,0 0.2693,0.1014 0.2962,0.2799 h -0.6071 c 0.0272,-0.1666 0.1297,-0.2799 0.311,-0.2799 z m 0.0052,-0.2249 c -0.3429,0 -0.5828,0.246 -0.5828,0.6058 0,0.3669 0.2495,0.6059 0.5998,0.6059 0.1762,0 0.3376,-0.0434 0.4796,-0.1617 l -0.1247,-0.1859 c -0.0981,0.0773 -0.2229,0.1207 -0.3403,0.1207 -0.164,0 -0.3133,-0.0749 -0.35,-0.2826 h 0.8687 c 0.0025,-0.0312 0.0051,-0.0627 0.0051,-0.0964 -0.0026,-0.3597 -0.2281,-0.6059 -0.5556,-0.6059 z m 3.0714,0.6058 c 0,-0.2028 0.1347,-0.3694 0.3549,-0.3694 0.2105,0 0.3524,0.1594 0.3524,0.3694 0,0.2099 -0.1419,0.3694 -0.3524,0.3694 -0.2202,0 -0.355,-0.1666 -0.355,-0.3694 z m 0.9471,0 v -0.5767 h -0.2542 v 0.1406 c -0.081,-0.1039 -0.2031,-0.1691 -0.3696,-0.1691 -0.3279,0 -0.5852,0.2536 -0.5852,0.6059 0,0.3522 0.2572,0.6058 0.5852,0.6058 0.1665,0 0.2886,-0.0652 0.3696,-0.169 v 0.1401 h 0.2543 v -0.5772 z m -2.3838,0 c 0,0.35 0.2471,0.6058 0.6242,0.6058 0.1762,0 0.2936,-0.0386 0.4205,-0.1375 l -0.1222,-0.2028 c -0.0955,0.0677 -0.1958,0.1039 -0.3065,0.1039 -0.2031,-0.0025 -0.3524,-0.1473 -0.3524,-0.3694 0,-0.2222 0.1493,-0.3669 0.3524,-0.3694 0.1104,0 0.2107,0.0362 0.3065,0.1039 l 0.1222,-0.2028 c -0.1271,-0.0989 -0.2445,-0.1376 -0.4205,-0.1376 -0.3771,0 -0.6242,0.2558 -0.6242,0.6059 z m 3.2797,-0.6059 c -0.1467,0 -0.2423,0.0677 -0.3084,0.1691 v -0.1399 h -0.2521 v 1.1536 h 0.2546 v -0.6467 c 0,-0.1909 0.0832,-0.2969 0.2495,-0.2969 0.0545,-8e-4 0.1086,0.009 0.1591,0.029 l 0.0785,-0.2365 C 88.1012,14.233 88.0278,14.2233 87.9763,14.2233 Z M 81.1571,14.344 C 81.0347,14.2645 80.866,14.2233 80.68,14.2233 c -0.2964,0 -0.4872,0.1401 -0.4872,0.3693 0,0.1881 0.142,0.3042 0.4036,0.3404 l 0.1202,0.0169 c 0.1395,0.0193 0.2054,0.0555 0.2054,0.1207 0,0.0892 -0.0927,0.1401 -0.2667,0.1401 -0.1762,0 -0.3034,-0.0556 -0.3891,-0.1207 l -0.1195,0.1956 c 0.1395,0.1014 0.3157,0.1497 0.5065,0.1497 0.3379,0 0.5337,-0.1569 0.5337,-0.3765 0,-0.2028 -0.1541,-0.3089 -0.4088,-0.3451 l -0.1199,-0.0172 c -0.1101,-0.014 -0.1983,-0.0359 -0.1983,-0.1132 0,-0.0844 0.0832,-0.1351 0.2227,-0.1351 0.1494,0 0.2939,0.0555 0.3648,0.0989 l 0.1101,-0.2028 z m 3.2826,-0.1205 c -0.1467,0 -0.2423,0.0677 -0.3081,0.1691 v -0.1403 h -0.2522 v 1.1536 h 0.2545 v -0.6467 c 0,-0.1909 0.0831,-0.2969 0.2494,-0.2969 0.0545,-8e-4 0.1086,0.009 0.1591,0.029 l 0.0785,-0.2365 C 84.5645,14.233 84.4911,14.2233 84.4396,14.2233 Z m -2.171,0.0288 h -0.416 v -0.35 h -0.2572 v 0.35 h -0.2373 v 0.2293 h 0.2373 v 0.5263 c 0,0.2676 0.1054,0.4271 0.4064,0.4271 0.1104,0 0.2375,-0.0338 0.3182,-0.0892 l -0.0735,-0.2149 c -0.0759,0.0434 -0.1591,0.0653 -0.2252,0.0653 -0.1272,0 -0.1687,-0.0773 -0.1687,-0.1931 v -0.5213 h 0.416 z m -3.8035,1.1539 v -0.724 c 0,-0.2727 -0.1763,-0.4561 -0.4603,-0.4586 -0.1493,-0.0024 -0.3034,0.0434 -0.4112,0.2053 -0.0807,-0.128 -0.2079,-0.2053 -0.3867,-0.2053 -0.1249,0 -0.247,0.0362 -0.3426,0.1713 v -0.1426 h -0.2547 v 1.1536 h 0.2567 v -0.6396 c 0,-0.2003 0.1126,-0.3067 0.2865,-0.3067 0.169,0 0.2544,0.1086 0.2544,0.3041 v 0.6421 h 0.2572 v -0.6397 c 0,-0.2002 0.1174,-0.3067 0.2863,-0.3067 0.1737,0 0.2566,0.1086 0.2566,0.3042 v 0.642 z"
         fill="#231f20"
         id="path7" />
      <path
         d="m 89.9924,11.5691 v -0.1687 h -0.0445 l -0.0516,0.1158 -0.0512,-0.1158 h -0.0447 v 0.1687 H 89.832 V 11.442 l 0.0482,0.1097 h 0.0328 l 0.0482,-0.11 v 0.1274 h 0.0313 z m -0.2826,0 v -0.1398 h 0.057 v -0.0285 h -0.1457 v 0.0285 h 0.057 v 0.1398 h 0.0314 z"
         fill="#f79410"
         id="path8" />
      <path
         d="M 84.9285,12.2924 H 81.0731 V 5.45996 h 3.8555 z"
         fill="#ff5f00"
         id="path9" />
      <path
         d="m 81.3177,8.87652 c 0,-1.38596 0.6581,-2.62057 1.6829,-3.41621 -0.7757,-0.60315 -1.7351,-0.93049 -2.723,-0.92906 -2.4334,0 -4.4059,1.94542 -4.4059,4.34527 0,2.39988 1.9725,4.34528 4.4059,4.34528 0.9879,0.0014 1.9473,-0.3259 2.723,-0.9291 -1.0247,-0.7955 -1.6829,-2.0302 -1.6829,-3.41618 z"
         fill="#eb001b"
         id="path10" />
      <path
         d="m 90.1301,8.87652 c 0,2.39988 -1.9725,4.34528 -4.4059,4.34528 -0.9879,0.0014 -1.9475,-0.3259 -2.7233,-0.9291 1.025,-0.7956 1.6831,-2.0302 1.6831,-3.41618 0,-1.38603 -0.6581,-2.62057 -1.6831,-3.41621 0.7758,-0.60313 1.7353,-0.93047 2.7232,-0.92906 2.4334,0 4.406,1.94542 4.406,4.34527"
         fill="#f79e1b"
         id="path11" />
    </g>
  </g>
  <path
     d="m 105.548,13.428 c -0.18,0 -0.276,-0.096 -0.276,-0.276 v -1.956 h -1.848 c -0.18,0 -0.276,-0.096 -0.276,-0.276 v -0.492 c 0,-0.18 0.096,-0.276 0.276,-0.276 h 1.848 V 8.208 c 0,-0.18 0.096,-0.276 0.276,-0.276 h 0.492 c 0.18,0 0.276,0.096 0.276,0.276 v 1.944 h 1.86 c 0.18,0 0.276,0.096 0.276,0.276 v 0.492 c 0,0.18 -0.096,0.276 -0.276,0.276 h -1.86 v 1.956 c 0,0.18 -0.096,0.276 -0.276,0.276 z M 110.65,15 c -0.18,0 -0.276,-0.096 -0.276,-0.276 V 8.976 C 110.362,8.796 110.458,8.7 110.638,8.7 h 0.648 c 0.18,0 0.276,0.096 0.276,0.276 v 0.576 c 0.336,-0.552 0.9,-1.032 1.98,-1.032 0.936,0 1.572,0.42 1.896,1.164 0.372,-0.54 0.936,-1.164 2.172,-1.164 1.5,0 2.208,0.996 2.208,2.604 v 3.6 c 0,0.18 -0.096,0.276 -0.276,0.276 h -0.672 c -0.18,0 -0.276,-0.096 -0.276,-0.276 v -3.12 c 0,-1.284 -0.372,-2.052 -1.368,-2.052 -0.984,0 -1.524,0.84 -1.524,1.824 v 3.348 c 0,0.18 -0.096,0.276 -0.276,0.276 h -0.672 c -0.18,0 -0.276,-0.096 -0.276,-0.276 v -3.12 c 0,-1.272 -0.36,-2.052 -1.368,-2.052 -0.984,0 -1.524,0.828 -1.524,1.836 v 3.336 c 0,0.18 -0.096,0.276 -0.276,0.276 z m 13.857,0.156 c -2.016,0 -3.168,-1.368 -3.168,-3.288 0,-1.956 1.224,-3.336 3.192,-3.336 1.956,0 3.18,1.38 3.18,3.336 0,1.92 -1.188,3.288 -3.204,3.288 z m -0.012,-1.008 c 1.2,0 1.884,-0.9 1.884,-2.292 0,-1.344 -0.696,-2.316 -1.884,-2.316 -1.176,0 -1.872,0.972 -1.872,2.316 0,1.392 0.684,2.292 1.872,2.292 z m 7.3,-4.512 c -1.02,0 -1.272,0.84 -1.272,2.1 v 2.988 c 0,0.18 -0.096,0.276 -0.276,0.276 h -0.66 c -0.18,0 -0.276,-0.096 -0.276,-0.276 V 8.976 C 129.299,8.796 129.395,8.7 129.575,8.7 h 0.612 c 0.18,0 0.276,0.096 0.276,0.276 v 0.528 c 0.204,-0.588 0.816,-0.96 1.524,-0.96 h 0.024 c 0.204,0 0.288,0.072 0.288,0.288 v 0.504 c 0,0.156 0,0.324 -0.168,0.324 -0.096,0 -0.216,-0.024 -0.336,-0.024 z m 4.43,5.52 c -1.944,0 -3.156,-1.308 -3.156,-3.276 0,-1.968 1.26,-3.36 3.156,-3.36 2.052,0 3,1.56 3,3.252 v 0.12 c 0,0.18 -0.096,0.276 -0.276,0.276 h -4.656 c 0.048,1.104 0.756,1.98 1.98,1.98 0.768,0 1.176,-0.324 1.488,-0.768 0.084,-0.12 0.192,-0.18 0.336,-0.18 h 0.66 c 0.168,0 0.264,0.06 0.264,0.156 0,0.048 -0.024,0.12 -0.072,0.216 -0.444,0.888 -1.332,1.584 -2.724,1.584 z m -1.884,-3.948 h 3.624 c -0.108,-0.996 -0.732,-1.704 -1.764,-1.704 -0.984,0 -1.74,0.648 -1.86,1.704 z"
     fill="#545d68"
     id="path12" />
  <defs
     id="defs20">
    <linearGradient
       id="paint0_linear_10437_107657"
       x1="68"
       y1="0.46296301"
       x2="98.483498"
       y2="18.438499"
       gradientUnits="userSpaceOnUse">
      <stop
         offset="0.273366"
         stop-color="white"
         id="stop12" />
      <stop
         offset="0.777565"
         stop-color="#F0F0F0"
         id="stop13" />
      <stop
         offset="1"
         stop-color="#DFDFDF"
         id="stop14" />
    </linearGradient>
    <radialGradient
       id="paint1_radial_10437_107657"
       cx="0"
       cy="0"
       r="1"
       gradientUnits="userSpaceOnUse"
       gradientTransform="matrix(0.62500257,12.999984,-19.505071,0.93774877,82.375,9.33333)">
      <stop
         stop-color="white"
         id="stop15" />
      <stop
         offset="1"
         stop-color="#E9E9E9"
         id="stop16" />
    </radialGradient>
    <clipPath
       id="clip0_10437_107657">
      <rect
         width="30"
         height="20"
         rx="4"
         fill="#ffffff"
         id="rect16"
         x="0"
         y="0" />
    </clipPath>
    <clipPath
       id="clip1_10437_107657">
      <rect
         width="11.6719"
         height="14.0625"
         fill="#ffffff"
         transform="translate(9.70508,3.4375)"
         id="rect17"
         x="0"
         y="0" />
    </clipPath>
    <clipPath
       id="clip2_10437_107657">
      <rect
         x="34"
         width="30"
         height="20"
         rx="4"
         fill="#ffffff"
         id="rect18"
         y="0" />
    </clipPath>
    <clipPath
       id="clip3_10437_107657">
      <rect
         x="68"
         width="30"
         height="20"
         rx="4"
         fill="#ffffff"
         id="rect19"
         y="0" />
    </clipPath>
    <clipPath
       id="clip4_10437_107657">
      <rect
         width="14.2566"
         height="10.9375"
         fill="#ffffff"
         transform="translate(75.8717,4.53125)"
         id="rect20"
         x="0"
         y="0" />
    </clipPath>
  </defs>
  <path
     style="fill:#00e600;stroke-width:0.0288447"
     d="m 110.54724,14.961551 c -0.0762,-0.026 -0.10938,-0.05914 -0.13538,-0.135384 -0.046,-0.134824 -0.053,-5.8316257 -0.007,-5.9625694 0.0455,-0.1303874 0.12887,-0.1525036 0.5752,-0.1525036 0.38207,0 0.40466,0.00326 0.48179,0.069565 0.0788,0.067692 0.0813,0.079148 0.0954,0.4254591 l 0.0144,0.3558941 0.0708,-0.1009564 c 0.31376,-0.4472673 0.69929,-0.715477 1.22719,-0.853746 0.28278,-0.074067 1.0165,-0.0764 1.28359,-0.00408 0.52552,0.1422931 0.9413,0.4671006 1.18628,0.9267328 l 0.0928,0.1740346 0.0888,-0.1140365 c 0.60312,-0.7744652 1.25929,-1.0842554 2.20889,-1.0428625 0.42367,0.018468 0.62138,0.065124 0.94293,0.2225103 0.55499,0.2716555 0.90827,0.7932093 1.06764,1.5762205 0.0471,0.231371 0.0518,0.448566 0.0518,2.381071 v 2.126476 l -0.0649,0.06489 c -0.0595,0.0595 -0.0966,0.06576 -0.44709,0.07534 -0.47449,0.01297 -0.59657,-0.01862 -0.64741,-0.167546 -0.0251,-0.07368 -0.0349,-0.586492 -0.0362,-1.903644 -0.002,-1.910041 -0.0134,-2.111155 -0.14361,-2.489086 -0.13739,-0.398901 -0.37712,-0.6793771 -0.68728,-0.8041048 -0.14417,-0.057977 -0.2146,-0.066532 -0.54074,-0.06569 -0.32089,8.288e-4 -0.39887,0.010435 -0.54056,0.066591 -0.33788,0.1339061 -0.61365,0.4042678 -0.78872,0.7732348 -0.19794,0.417182 -0.19369,0.366791 -0.21188,2.511071 l -0.0164,1.939033 -0.0657,0.06567 c -0.0627,0.06264 -0.0862,0.06567 -0.50967,0.06567 -0.43017,0 -0.44628,-0.0022 -0.5184,-0.06993 l -0.0744,-0.06993 -3e-5,-1.704019 c -1e-5,-0.937211 -0.0131,-1.84189 -0.0291,-2.010398 -0.0854,-0.900966 -0.39165,-1.3903076 -0.96604,-1.5437381 -0.16993,-0.045394 -0.58143,-0.050054 -0.76116,-0.00862 -0.52486,0.1210005 -0.94915,0.5895581 -1.09868,1.2133031 -0.0548,0.228445 -0.058,0.342172 -0.0597,2.087667 -0.001,1.350417 -0.0111,1.873165 -0.0363,1.947016 -0.0468,0.137235 -0.15577,0.169812 -0.56806,0.169812 -0.18244,0 -0.37714,-0.01549 -0.43267,-0.03443 z"
     id="path20" />
  <path
     style="fill:#00e600;stroke-width:0.0288447"
     d="m 105.36831,13.341977 -0.0708,-0.0708 v -1.038642 -1.038641 l -0.99767,-0.0083 -0.99766,-0.0083 -0.0696,-0.08093 c -0.0651,-0.07573 -0.0696,-0.102985 -0.0696,-0.423851 0,-0.320859 0.004,-0.348125 0.0696,-0.42385 l 0.0696,-0.08093 0.99767,-0.0086 0.99767,-0.0086 V 9.1260374 c 0,-0.6357649 0.0111,-1.0451646 0.0292,-1.0790052 0.0406,-0.07581 0.20423,-0.114681 0.47559,-0.1129557 0.27636,0.00176 0.41841,0.045031 0.46755,0.1424345 0.0272,0.053852 0.0365,0.3255682 0.0368,1.0730562 l 4.3e-4,1.0009448 0.99437,0.0086 c 1.22825,0.01065 1.12571,-0.03612 1.12571,0.513401 0,0.549572 0.10255,0.502833 -1.12571,0.513072 l -0.99437,0.0083 v 1.007128 c 0,0.67667 -0.0105,1.030192 -0.032,1.077417 -0.0496,0.108769 -0.14554,0.134339 -0.50427,0.134339 -0.31368,0 -0.33551,-0.0038 -0.40247,-0.0708 z"
     id="path21" />
  <path
     style="fill:#00e600;stroke-width:0.0288447"
     d="m 124.13309,15.125017 c -0.0397,-0.0058 -0.16946,-0.02498 -0.28845,-0.04257 -1.07007,-0.158224 -1.93055,-0.883992 -2.28738,-1.929269 -0.14659,-0.429437 -0.17884,-0.660873 -0.17884,-1.283588 0,-0.622716 0.0322,-0.854152 0.17884,-1.283589 0.33129,-0.9704789 1.0813,-1.6751412 2.04244,-1.9189539 1.20264,-0.3050752 2.41216,-0.019308 3.17516,0.7501775 0.6656,0.6712644 0.98518,1.6546604 0.90305,2.7788234 -0.11921,1.631737 -1.13498,2.726328 -2.70757,2.917673 -0.23175,0.0282 -0.68083,0.03426 -0.83725,0.0113 z m 0.92303,-1.035468 c 0.62365,-0.187697 1.06203,-0.684563 1.24608,-1.412311 0.0576,-0.227662 0.0655,-0.328806 0.0641,-0.822074 -10e-4,-0.513275 -0.008,-0.587003 -0.0771,-0.842952 -0.20455,-0.759519 -0.69252,-1.2802741 -1.34841,-1.4390305 -0.0873,-0.02112 -0.30143,-0.037579 -0.47594,-0.036575 -0.27535,0.00158 -0.35032,0.0133 -0.56723,0.088657 -0.55382,0.1924045 -0.93906,0.6132555 -1.1435,1.2491815 -0.18488,0.575103 -0.19106,1.324672 -0.0159,1.929471 0.20358,0.702955 0.68676,1.183458 1.32282,1.315478 0.25332,0.05258 0.77307,0.03699 0.99514,-0.02984 z"
     id="path22" />
  <path
     style="fill:#00e600;stroke-width:0.0288447"
     d="m 129.52047,14.980206 c -0.0433,-0.0074 -0.10493,-0.04689 -0.13701,-0.08767 -0.0577,-0.07333 -0.0583,-0.107021 -0.0583,-3.052486 0,-2.888197 0.002,-2.9804005 0.0551,-3.0464356 0.0522,-0.064595 0.0754,-0.068584 0.45001,-0.077596 0.59307,-0.014266 0.61938,0.00728 0.62062,0.5084284 l 7.7e-4,0.3087231 0.0922,-0.1730681 c 0.25493,-0.4784159 0.80627,-0.791582 1.39575,-0.7928024 0.16022,-3.317e-4 0.22105,0.011813 0.27403,0.054714 0.0661,0.053495 0.0681,0.067997 0.0681,0.4859263 0,0.3099853 -0.0105,0.4433938 -0.0373,0.4757482 -0.0296,0.035702 -0.11875,0.047066 -0.43267,0.055176 -0.35609,0.0092 -0.41175,0.017868 -0.56036,0.087284 -0.41103,0.1919899 -0.63636,0.6285381 -0.71377,1.3828371 -0.017,0.165214 -0.0298,1.029886 -0.0298,2.002373 v 1.711594 l -0.0688,0.08001 c -0.0683,0.07943 -0.0716,0.08005 -0.4543,0.08539 -0.21202,0.003 -0.42089,-7.03e-4 -0.46417,-0.0081 z"
     id="path23" />
  <path
     style="fill:#00e600;stroke-width:0.0288447"
     d="m 135.84403,15.125275 c -0.31828,-0.04558 -0.50829,-0.08516 -0.70669,-0.147219 -1.08899,-0.340604 -1.80828,-1.216828 -2.00713,-2.445042 -0.0534,-0.330072 -0.0466,-1.036064 0.0132,-1.368994 0.28984,-1.6130781 1.48605,-2.6265484 3.09935,-2.6258781 0.85191,3.54e-4 1.56601,0.2840957 2.08452,0.8282664 0.53996,0.5666816 0.81695,1.2611207 0.87883,2.2032397 0.0219,0.333135 -0.009,0.49485 -0.10301,0.54534 -0.0342,0.01827 -0.91619,0.02862 -2.43921,0.02862 h -2.38573 l 0.0182,0.194702 c 0.0678,0.723957 0.45414,1.321896 1.04468,1.61703 0.51561,0.25768 1.27909,0.271737 1.76558,0.03251 0.20088,-0.09878 0.47102,-0.334127 0.62624,-0.545571 0.15218,-0.20731 0.2254,-0.231414 0.70296,-0.231414 0.40866,0 0.53317,0.02401 0.56582,0.109119 0.009,0.02399 -0.0219,0.126132 -0.0691,0.226985 -0.40398,0.8633 -1.21203,1.422781 -2.26136,1.565749 -0.21154,0.02882 -0.66551,0.03571 -0.8272,0.01256 z m 2.11807,-4.041706 c -0.0918,-0.629919 -0.45697,-1.1767288 -0.9385,-1.4054094 -0.58823,-0.2793465 -1.30289,-0.2430227 -1.843,0.093673 -0.42958,0.2677984 -0.74921,0.7638854 -0.83189,1.2911814 l -0.0247,0.157567 h 1.82903 1.82904 z"
     id="path24" />
</svg>
