<?xml version="1.0" encoding="UTF-8" standalone="no"?>
<svg
   fill="none"
   viewBox="0 0 135 48"
   version="1.1"
   id="svg2"
   width="135"
   height="48"
   xmlns="http://www.w3.org/2000/svg"
   xmlns:svg="http://www.w3.org/2000/svg">
  <g
     clip-path="url(#a)"
     id="g1"
     transform="translate(-2,-2.0168768)">
    <path
       fill="#000000"
       d="m 133,2.02 v 32.83 h -7.47 V 2.02 Z M 122.78,13.1 v 21.81 h -6.64 v -1.88 c -0.84,0.82 -1.8,1.44 -2.86,1.88 -1.07,0.46 -2.23,0.7 -3.47,0.7 -1.56,0 -3.01,-0.29 -4.34,-0.87 -1.33,-0.61 -2.49,-1.44 -3.47,-2.48 -0.99,-1.05 -1.77,-2.27 -2.35,-3.66 -0.55,-1.42 -0.82,-2.95 -0.82,-4.58 0,-1.63 0.27,-3.14 0.82,-4.53 0.58,-1.42 1.36,-2.66 2.35,-3.71 a 10.45,10.45 0 0 1 3.47,-2.44 c 1.33,-0.61 2.78,-0.92 4.34,-0.92 1.24,0 2.4,0.23 3.47,0.7 1.07,0.44 2.03,1.06 2.86,1.88 v -1.88 h 6.64 z m -11.77,15.87 c 1.36,0 2.47,-0.46 3.34,-1.4 0.9,-0.93 1.35,-2.12 1.35,-3.57 0,-1.45 -0.45,-2.65 -1.35,-3.57 -0.87,-0.93 -1.99,-1.4 -3.34,-1.4 -1.35,0 -2.49,0.46 -3.39,1.4 -0.87,0.93 -1.31,2.12 -1.31,3.57 0,1.45 0.44,2.65 1.31,3.57 0.9,0.93 2.03,1.4 3.39,1.4 z M 88.17,2.02 c 1.97,0 3.65,0.28 5.04,0.83 1.39,0.55 2.56,1.32 3.52,2.31 0.98,1.02 1.75,2.18 2.3,3.49 0.55,1.31 0.82,2.72 0.82,4.23 0,1.51 -0.27,2.92 -0.82,4.23 a 11.15,11.15 0 0 1 -2.3,3.49 c -0.95,0.99 -2.13,1.76 -3.52,2.31 -1.39,0.55 -3.07,0.83 -5.04,0.83 h -3.6 V 34.9 h -7.6 V 2.02 Z m -1.09,14.96 c 1.02,0 1.79,-0.1 2.35,-0.31 0.58,-0.23 1.06,-0.53 1.43,-0.87 0.78,-0.73 1.17,-1.7 1.17,-2.92 0,-1.22 -0.39,-2.19 -1.17,-2.92 C 90.48,9.61 90.01,9.33 89.43,9.13 88.88,8.9 88.1,8.78 87.08,8.78 h -2.52 v 8.2 z M 48.97,13.1 h 8.25 l 5.6,10.46 h 0.09 L 67.9,13.1 h 7.64 L 59.17,45.98 h -7.6 l 7.47,-15.04 z m -1.47,0 v 21.81 h -6.64 v -1.88 c -0.84,0.82 -1.8,1.44 -2.86,1.88 -1.07,0.46 -2.23,0.7 -3.47,0.7 -1.56,0 -3.01,-0.29 -4.34,-0.87 -1.33,-0.61 -2.49,-1.44 -3.47,-2.48 -0.99,-1.05 -1.77,-2.27 -2.35,-3.66 -0.55,-1.42 -0.82,-2.95 -0.82,-4.58 0,-1.63 0.27,-3.14 0.82,-4.53 0.58,-1.42 1.36,-2.66 2.35,-3.71 a 10.35,10.35 0 0 1 3.47,-2.44 c 1.33,-0.61 2.78,-0.92 4.34,-0.92 1.24,0 2.4,0.23 3.47,0.7 1.07,0.44 2.03,1.06 2.86,1.88 V 13.12 H 47.5 Z M 35.73,28.97 c 1.36,0 2.47,-0.46 3.35,-1.4 0.9,-0.93 1.35,-2.12 1.35,-3.57 0,-1.45 -0.45,-2.65 -1.35,-3.57 -0.87,-0.93 -1.99,-1.4 -3.35,-1.4 -1.36,0 -2.49,0.46 -3.39,1.4 -0.87,0.93 -1.3,2.12 -1.3,3.57 0,1.45 0.44,2.65 1.3,3.57 0.9,0.93 2.03,1.4 3.39,1.4 z M 13.2,2.02 c 1.97,0 3.65,0.28 5.04,0.83 1.39,0.55 2.56,1.32 3.52,2.31 0.98,1.02 1.75,2.18 2.3,3.49 0.55,1.31 0.82,2.72 0.82,4.23 0,1.51 -0.27,2.92 -0.82,4.23 a 11.15,11.15 0 0 1 -2.3,3.49 c -0.95,0.99 -2.13,1.76 -3.52,2.31 -1.39,0.55 -3.07,0.83 -5.04,0.83 H 9.6 V 34.9 H 2 V 2.02 Z m -1.08,14.96 c 1.02,0 1.79,-0.1 2.35,-0.31 0.58,-0.23 1.06,-0.53 1.43,-0.87 0.78,-0.73 1.17,-1.7 1.17,-2.92 0,-1.22 -0.39,-2.19 -1.17,-2.92 C 15.52,9.61 15.05,9.33 14.47,9.13 13.92,8.9 13.14,8.78 12.12,8.78 H 9.6 v 8.2 z"
       id="path1" />
  </g>
  <defs
     id="defs2">
    <clipPath
       id="a">
      <path
         fill="#ffffff"
         d="M 2,2.02 H 133 V 45.98 H 2 Z"
         id="path2" />
    </clipPath>
  </defs>
  <path
     style="fill:#00e600;stroke-width:0.157343"
     d="M 0.1241259,16.378988 V 0.0021247 l 6.6477272,0.069191 c 7.4579679,0.077624 7.9057159,0.1304556 10.1092659,1.192829 2.840491,1.3694555 4.784417,3.8318637 5.60595,7.1011675 1.164888,4.6356888 -1.239466,9.9920408 -5.396329,12.0217828 -1.926595,0.940731 -2.673536,1.07783 -6.306649,1.157569 l -3.2648602,0.07166 v 5.569766 5.569765 H 3.8216783 0.1241259 Z M 12.958285,14.552189 c 0.846806,-0.449772 1.735779,-1.453636 1.965113,-2.219087 0.101694,-0.339425 0.158128,-1.147269 0.125409,-1.795209 C 14.964437,8.8671632 14.426606,8.0159312 12.993327,7.2846661 11.988534,6.7720166 11.867803,6.7493416 9.734553,6.6726241 L 7.5192308,6.5929553 v 4.2057087 4.205709 l 2.3994752,-0.0561 c 2.09049,-0.04888 2.481903,-0.09988 3.039579,-0.396084 z"
     id="path3" />
  <path
     style="fill:#00e600;stroke-width:0.157343"
     d="M 30.768715,33.380058 C 28.518166,33.001103 26.766781,32.055724 24.977872,30.254222 23.864765,29.133278 23.508911,28.644342 22.905048,27.4062 22.504088,26.584085 22.064439,25.401838 21.92805,24.778986 21.641366,23.469775 21.603733,20.959014 21.85053,19.6073 c 0.600018,-3.286273 2.955829,-6.488361 5.808558,-7.895165 1.746335,-0.861193 3.048512,-1.182043 4.802887,-1.183407 2.16433,-0.0017 4.058809,0.655668 5.609957,1.946555 0.404948,0.337004 0.77667,0.612735 0.826049,0.612735 0.04938,0 0.08978,-0.424825 0.08978,-0.944056 v -0.944056 h 3.225525 3.225524 V 21.977878 32.75585 h -3.225524 -3.225525 v -0.865384 c 0,-0.475962 -0.05501,-0.865385 -0.122241,-0.865385 -0.06723,0 -0.509759,0.29331 -0.983391,0.6518 -2.011718,1.522658 -4.560819,2.132994 -7.113415,1.703177 z m 4.661178,-6.645293 c 0.864534,-0.251679 2.178821,-1.506804 2.629974,-2.51159 0.528117,-1.176196 0.535253,-3.313231 0.01485,-4.448094 -0.818763,-1.785518 -2.393249,-2.787392 -4.368326,-2.779645 -1.979507,0.0078 -3.546411,1.011377 -4.339756,2.779645 -0.529123,1.179348 -0.508231,3.293815 0.04431,4.484266 1.067177,2.29925 3.370328,3.246468 6.018948,2.475418 z"
     id="path4" />
  <path
     style="fill:#00e600;stroke-width:0.157343"
     d="m 53.049241,37.20078 c 1.849591,-3.699519 3.519671,-7.091847 3.711289,-7.538507 l 0.348395,-0.812106 -4.910334,-8.707124 c -2.700683,-4.788918 -4.941215,-8.760226 -4.978958,-8.82513 -0.03774,-0.0649 1.735999,-0.118007 3.94165,-0.118007 h 4.010273 l 2.784271,5.198912 c 1.531348,2.859401 2.850562,5.176814 2.931585,5.149806 0.08102,-0.02701 1.252728,-2.366518 2.603786,-5.198911 l 2.45647,-5.149807 h 3.670397 c 2.018719,0 3.670396,0.02937 3.670396,0.06527 0,0.0359 -3.641206,7.399532 -8.091569,16.363636 l -8.091571,16.298371 h -3.709487 -3.709486 z"
     id="path5" />
  <path
     style="fill:#00e600;stroke-width:0.157343"
     d="M 75.019231,16.377926 V 0 l 6.726398,0.071987 c 7.564907,0.080961 7.895588,0.1211841 10.25447,1.2473297 2.273404,1.0853383 4.248431,3.3632432 5.140749,5.9291051 0.975682,2.8055652 0.794524,5.8128362 -0.506887,8.4145482 -1.157551,2.314114 -2.657127,3.803501 -4.857737,4.824725 -1.892453,0.878221 -2.511272,0.98924 -6.057693,1.086782 l -3.225524,0.08872 -0.04135,5.546329 -0.04135,5.546328 h -3.69554 -3.695539 z m 12.143283,-1.564254 c 1.002125,-0.278336 2.045163,-1.100799 2.482992,-1.957905 0.333318,-0.652513 0.39858,-0.993282 0.391734,-2.045455 C 90.02764,9.3292602 89.691249,8.5249682 88.760756,7.7579773 87.835908,6.9956393 86.985128,6.7763377 84.577797,6.6797543 l -2.163461,-0.086799 v 4.1915877 4.191587 l 2.08479,-8.78e-4 c 1.146634,-4.82e-4 2.345159,-0.07319 2.663388,-0.16158 z"
     id="path6" />
  <path
     style="fill:#00e600;stroke-width:0.157343"
     d="m 105.62889,33.295632 c -0.60219,-0.119551 -1.66425,-0.4906 -2.36014,-0.824555 -4.57476,-2.19541 -7.080458,-7.313811 -6.160151,-12.583372 0.309249,-1.770722 0.775595,-2.96094 1.718531,-4.386079 1.26439,-1.910975 2.38867,-2.927281 4.29139,-3.879252 1.49976,-0.750363 2.86345,-1.084129 4.47064,-1.094198 2.20584,-0.01382 4.17632,0.644716 5.82236,1.945839 l 0.78603,0.621321 v -0.947715 -0.947715 h 3.22553 3.22552 V 21.977878 32.75585 h -3.22552 -3.22553 v -0.865384 c 0,-0.475962 -0.0348,-0.865385 -0.0773,-0.865385 -0.0425,0 -0.41424,0.258673 -0.82605,0.574829 -2.1394,1.642482 -4.8798,2.248713 -7.6653,1.695722 z m 5.53576,-6.778755 c 1.62054,-0.766105 2.56087,-2.4328 2.56087,-4.538999 0,-2.113726 -0.93009,-3.754704 -2.58785,-4.565769 -1.21501,-0.594448 -3.04695,-0.59586 -4.25814,-0.0033 -0.92038,0.450302 -1.61128,1.145371 -2.16091,2.17395 -0.30664,0.573862 -0.35498,0.900032 -0.35498,2.395101 0,1.574389 0.0382,1.803131 0.42258,2.531647 0.44568,0.844629 1.21933,1.619199 2.04242,2.044834 1.17762,0.608972 3.00194,0.593201 4.33601,-0.03748 z"
     id="path7" />
  <path
     style="fill:#00e600;stroke-width:0.157343"
     d="M 123.63811,16.392214 V 0.0285777 h 3.61888 3.61888 V 16.392214 32.75585 h -3.61888 -3.61888 z"
     id="path8" />
</svg>
